<svg xmlns="http://www.w3.org/2000/svg" width="940" height="700" viewBox="0 0 940 700"><rect width="940" height="700" fill="#fff" stroke="#ccc" stroke-width="1"/><g transform="translate(0, 0)"><rect width="940" height="50" rx="4" fill="#2a2a2a" stroke="#444"/><text x="12" y="20" font-family="-apple-system, 'Segoe UI', Roboto, sans-serif" font-size="11" font-weight="bold" fill="#ccc">header</text></g><g transform="translate(16, 12)"><text x="0" y="20" font-family="-apple-system, 'Segoe UI', Roboto, sans-serif" font-size="20" font-weight="bold" fill="#333333">Analytics</text></g><g transform="translate(140, 18)"><text x="0" y="14" font-family="-apple-system, 'Segoe UI', Roboto, sans-serif" font-size="11" fill="#4a90d9" text-decoration="underline">Dashboard</text><text x="67" y="14" font-family="-apple-system, 'Segoe UI', Roboto, sans-serif" font-size="11" fill="#888888">/</text><text x="79" y="14" font-family="-apple-system, 'Segoe UI', Roboto, sans-serif" font-size="11" fill="#4a90d9" text-decoration="underline">Traffic</text><text x="132" y="14" font-family="-apple-system, 'Segoe UI', Roboto, sans-serif" font-size="11" fill="#888888">/</text><text x="144" y="14" font-family="-apple-system, 'Segoe UI', Roboto, sans-serif" font-size="11" fill="#333333">This Week</text></g><g transform="translate(700, 10)"><rect width="120" height="30" rx="4" fill="#ffffff" stroke="#d0d0d0"/><text x="8" y="20" font-family="-apple-system, 'Segoe UI', Roboto, sans-serif" font-size="13" fill="#333333">This Week</text><polyline points="100,12 106,18 112,12" fill="none" stroke="#a0a0a0" stroke-width="1.5"/></g><g transform="translate(888, 5)"><circle cx="20" cy="20" r="20" fill="#4caf50"/><text x="20" y="25.6" text-anchor="middle" font-family="-apple-system, 'Segoe UI', Roboto, sans-serif" font-size="16" fill="#fff">U</text></g><g transform="translate(20, 66)"><rect x="2" y="3" width="215" height="90" rx="6" fill="#00000018"/><rect width="215" height="90" rx="6" fill="#ffffff" stroke="#d0d0d0"/><text x="16" y="24" font-family="-apple-system, 'Segoe UI', Roboto, sans-serif" font-size="13" font-weight="bold" fill="#333333">kpi1</text></g><g transform="translate(36, 86)"><text x="0" y="11" font-family="-apple-system, 'Segoe UI', Roboto, sans-serif" font-size="11" fill="#333333" text-anchor="start">Page Views</text></g><g transform="translate(36, 112)"><text x="0" y="24" font-family="-apple-system, 'Segoe UI', Roboto, sans-serif" font-size="24" font-weight="bold" fill="#333333">284,302</text></g><g transform="translate(150, 106)"><rect width="60" height="20" rx="10" fill="#4caf50"/><text x="30" y="14" text-anchor="middle" font-family="-apple-system, 'Segoe UI', Roboto, sans-serif" font-size="11" fill="#fff">+12.5%</text></g><g transform="translate(250, 66)"><rect x="2" y="3" width="215" height="90" rx="6" fill="#00000018"/><rect width="215" height="90" rx="6" fill="#ffffff" stroke="#d0d0d0"/><text x="16" y="24" font-family="-apple-system, 'Segoe UI', Roboto, sans-serif" font-size="13" font-weight="bold" fill="#333333">kpi2</text></g><g transform="translate(266, 86)"><text x="0" y="11" font-family="-apple-system, 'Segoe UI', Roboto, sans-serif" font-size="11" fill="#333333" text-anchor="start">Unique Visitors</text></g><g transform="translate(266, 112)"><text x="0" y="24" font-family="-apple-system, 'Segoe UI', Roboto, sans-serif" font-size="24" font-weight="bold" fill="#333333">42,847</text></g><g transform="translate(380, 106)"><rect width="56" height="20" rx="10" fill="#4caf50"/><text x="28" y="14" text-anchor="middle" font-family="-apple-system, 'Segoe UI', Roboto, sans-serif" font-size="11" fill="#fff">+8.3%</text></g><g transform="translate(480, 66)"><rect x="2" y="3" width="215" height="90" rx="6" fill="#00000018"/><rect width="215" height="90" rx="6" fill="#ffffff" stroke="#d0d0d0"/><text x="16" y="24" font-family="-apple-system, 'Segoe UI', Roboto, sans-serif" font-size="13" font-weight="bold" fill="#333333">kpi3</text></g><g transform="translate(496, 86)"><text x="0" y="11" font-family="-apple-system, 'Segoe UI', Roboto, sans-serif" font-size="11" fill="#333333" text-anchor="start">Bounce Rate</text></g><g transform="translate(496, 112)"><text x="0" y="24" font-family="-apple-system, 'Segoe UI', Roboto, sans-serif" font-size="24" font-weight="bold" fill="#333333">34.2%</text></g><g transform="translate(610, 106)"><rect width="50" height="20" rx="10" fill="#4caf50"/><text x="25" y="14" text-anchor="middle" font-family="-apple-system, 'Segoe UI', Roboto, sans-serif" font-size="11" fill="#fff">-2.1%</text></g><g transform="translate(710, 66)"><rect x="2" y="3" width="210" height="90" rx="6" fill="#00000018"/><rect width="210" height="90" rx="6" fill="#ffffff" stroke="#d0d0d0"/><text x="16" y="24" font-family="-apple-system, 'Segoe UI', Roboto, sans-serif" font-size="13" font-weight="bold" fill="#333333">kpi4</text></g><g transform="translate(726, 86)"><text x="0" y="11" font-family="-apple-system, 'Segoe UI', Roboto, sans-serif" font-size="11" fill="#333333" text-anchor="start">Avg Session</text></g><g transform="translate(726, 112)"><text x="0" y="24" font-family="-apple-system, 'Segoe UI', Roboto, sans-serif" font-size="24" font-weight="bold" fill="#333333">4m 32s</text></g><g transform="translate(840, 106)"><rect width="52" height="20" rx="10" fill="#ff9800"/><text x="26" y="14" text-anchor="middle" font-family="-apple-system, 'Segoe UI', Roboto, sans-serif" font-size="11" fill="#fff">+0.8%</text></g><g transform="translate(20, 172)"><rect x="2" y="3" width="600" height="260" rx="6" fill="#00000018"/><rect width="600" height="260" rx="6" fill="#ffffff" stroke="#d0d0d0"/><text x="16" y="24" font-family="-apple-system, 'Segoe UI', Roboto, sans-serif" font-size="13" font-weight="bold" fill="#333333">chart-card</text></g><g transform="translate(22, 174)"><rect width="596" height="32" fill="#f5f5f5"/><line x1="0" y1="31" x2="596" y2="31" stroke="#d0d0d0"/><text x="74.5" y="21" text-anchor="middle" font-family="-apple-system, 'Segoe UI', Roboto, sans-serif" font-size="13" fill="#4a90d9" font-weight="bold">Overview</text><rect x="0" y="29" width="149" height="3" fill="#4a90d9"/><text x="223.5" y="21" text-anchor="middle" font-family="-apple-system, 'Segoe UI', Roboto, sans-serif" font-size="13" fill="#888888">Traffic</text><text x="372.5" y="21" text-anchor="middle" font-family="-apple-system, 'Segoe UI', Roboto, sans-serif" font-size="13" fill="#888888">Conversions</text><text x="521.5" y="21" text-anchor="middle" font-family="-apple-system, 'Segoe UI', Roboto, sans-serif" font-size="13" fill="#888888">Revenue</text></g><g transform="translate(36, 218)"><rect x="0" y="8" width="570" height="172" rx="4" fill="none" stroke="#a0a0a0"/><rect x="8" y="0" width="53.5" height="16" fill="#ffffff"/><text x="16" y="13" font-family="-apple-system, 'Segoe UI', Roboto, sans-serif" font-size="11" fill="#888888">chart</text></g><g transform="translate(42, 230)"><text x="0" y="11" font-family="-apple-system, 'Segoe UI', Roboto, sans-serif" font-size="11" fill="#333333" text-anchor="start">300k</text></g><g transform="translate(42, 270)"><text x="0" y="11" font-family="-apple-system, 'Segoe UI', Roboto, sans-serif" font-size="11" fill="#333333" text-anchor="start">200k</text></g><g transform="translate(42, 310)"><text x="0" y="11" font-family="-apple-system, 'Segoe UI', Roboto, sans-serif" font-size="11" fill="#333333" text-anchor="start">100k</text></g><g transform="translate(52, 350)"><text x="0" y="11" font-family="-apple-system, 'Segoe UI', Roboto, sans-serif" font-size="11" fill="#333333" text-anchor="start">0</text></g><g transform="translate(90, 340)"><rect width="70" height="8" rx="4" fill="#f5f5f5" stroke="#d0d0d0"/><rect width="31.5" height="8" rx="4" fill="#4a90d9"/></g><g transform="translate(170, 340)"><rect width="70" height="8" rx="4" fill="#f5f5f5" stroke="#d0d0d0"/><rect width="43.4" height="8" rx="4" fill="#4a90d9"/></g><g transform="translate(250, 340)"><rect width="70" height="8" rx="4" fill="#f5f5f5" stroke="#d0d0d0"/><rect width="54.6" height="8" rx="4" fill="#4a90d9"/></g><g transform="translate(330, 340)"><rect width="70" height="8" rx="4" fill="#f5f5f5" stroke="#d0d0d0"/><rect width="38.5" height="8" rx="4" fill="#4a90d9"/></g><g transform="translate(410, 340)"><rect width="70" height="8" rx="4" fill="#f5f5f5" stroke="#d0d0d0"/><rect width="63" height="8" rx="4" fill="#4a90d9"/></g><g transform="translate(490, 340)"><rect width="70" height="8" rx="4" fill="#f5f5f5" stroke="#d0d0d0"/><rect width="21" height="8" rx="4" fill="#4a90d9"/></g><g transform="translate(90, 370)"><text x="0" y="11" font-family="-apple-system, 'Segoe UI', Roboto, sans-serif" font-size="11" fill="#333333" text-anchor="start">Mon  Tue  Wed  Thu   Fri   Sat</text></g><g transform="translate(36, 404)"><rect width="36" height="18" y="1" rx="9" fill="#d0d0d0"/><circle cx="9" cy="10" r="7" fill="#ffffff"/><text x="44" y="15" font-family="-apple-system, 'Segoe UI', Roboto, sans-serif" font-size="13" fill="#333333">Compare to previous period</text></g><g transform="translate(636, 172)"><rect x="2" y="3" width="284" height="260" rx="6" fill="#00000018"/><rect width="284" height="260" rx="6" fill="#ffffff" stroke="#d0d0d0"/><text x="16" y="24" font-family="-apple-system, 'Segoe UI', Roboto, sans-serif" font-size="13" font-weight="bold" fill="#333333">top-pages</text></g><g transform="translate(652, 192)"><text x="0" y="13" font-family="-apple-system, 'Segoe UI', Roboto, sans-serif" font-size="13" fill="#333333" text-anchor="start" font-weight="bold">Top Pages</text></g><g transform="translate(638, 210)"><rect width="280" height="210" fill="#ffffff" stroke="#d0d0d0"/><rect width="280" height="28" fill="#f5f5f5"/><line x1="0" y1="28" x2="280" y2="28" stroke="#d0d0d0"/><text x="8" y="18" font-family="-apple-system, 'Segoe UI', Roboto, sans-serif" font-size="11" font-weight="bold" fill="#333333">Page</text><text x="101.33333333333333" y="18" font-family="-apple-system, 'Segoe UI', Roboto, sans-serif" font-size="11" font-weight="bold" fill="#333333">Views</text><line x1="93.33333333333333" y1="0" x2="93.33333333333333" y2="210" stroke="#d0d0d0"/><text x="194.66666666666666" y="18" font-family="-apple-system, 'Segoe UI', Roboto, sans-serif" font-size="11" font-weight="bold" fill="#333333">Rate</text><line x1="186.66666666666666" y1="0" x2="186.66666666666666" y2="210" stroke="#d0d0d0"/><line x1="0" y1="52" x2="280" y2="52" stroke="#d0d0d0"/><line x1="0" y1="76" x2="280" y2="76" stroke="#d0d0d0"/><line x1="0" y1="100" x2="280" y2="100" stroke="#d0d0d0"/><line x1="0" y1="124" x2="280" y2="124" stroke="#d0d0d0"/><line x1="0" y1="148" x2="280" y2="148" stroke="#d0d0d0"/><line x1="0" y1="172" x2="280" y2="172" stroke="#d0d0d0"/><line x1="0" y1="196" x2="280" y2="196" stroke="#d0d0d0"/></g><g transform="translate(20, 448)"><line x1="0" y1="4" x2="900" y2="4" stroke="#d0d0d0" stroke-width="1"/><rect x="438" y="-4" width="24" height="16" rx="3" fill="#f5f5f5" stroke="#a0a0a0"/><line x1="446" y1="1" x2="446" y2="7" stroke="#a0a0a0" stroke-width="1"/><line x1="450" y1="1" x2="450" y2="7" stroke="#a0a0a0" stroke-width="1"/><line x1="454" y1="1" x2="454" y2="7" stroke="#a0a0a0" stroke-width="1"/></g><g transform="translate(20, 472)"><rect x="2" y="3" width="440" height="210" rx="6" fill="#00000018"/><rect width="440" height="210" rx="6" fill="#ffffff" stroke="#d0d0d0"/><text x="16" y="24" font-family="-apple-system, 'Segoe UI', Roboto, sans-serif" font-size="13" font-weight="bold" fill="#333333">sources-card</text></g><g transform="translate(36, 492)"><text x="0" y="13" font-family="-apple-system, 'Segoe UI', Roboto, sans-serif" font-size="13" fill="#333333" text-anchor="start" font-weight="bold">Traffic Sources</text></g><g transform="translate(36, 510)"><rect x="0" y="8" width="160" height="142" rx="4" fill="none" stroke="#a0a0a0"/><rect x="8" y="0" width="53.5" height="16" fill="#ffffff"/><text x="16" y="13" font-family="-apple-system, 'Segoe UI', Roboto, sans-serif" font-size="11" fill="#888888">donut</text></g><g transform="translate(220, 520)"><text x="0" y="11" font-family="-apple-system, 'Segoe UI', Roboto, sans-serif" font-size="11" fill="#333333" text-anchor="start">Direct</text></g><g transform="translate(320, 516)"><rect width="42" height="18" rx="9" fill="#4a90d9"/><text x="21" y="13" text-anchor="middle" font-family="-apple-system, 'Segoe UI', Roboto, sans-serif" font-size="11" fill="#fff">38%</text></g><g transform="translate(220, 546)"><text x="0" y="11" font-family="-apple-system, 'Segoe UI', Roboto, sans-serif" font-size="11" fill="#333333" text-anchor="start">Organic Search</text></g><g transform="translate(320, 542)"><rect width="42" height="18" rx="9" fill="#4caf50"/><text x="21" y="13" text-anchor="middle" font-family="-apple-system, 'Segoe UI', Roboto, sans-serif" font-size="11" fill="#fff">28%</text></g><g transform="translate(220, 572)"><text x="0" y="11" font-family="-apple-system, 'Segoe UI', Roboto, sans-serif" font-size="11" fill="#333333" text-anchor="start">Social Media</text></g><g transform="translate(320, 568)"><rect width="42" height="18" rx="9" fill="#ff9800"/><text x="21" y="13" text-anchor="middle" font-family="-apple-system, 'Segoe UI', Roboto, sans-serif" font-size="11" fill="#fff">18%</text></g><g transform="translate(220, 598)"><text x="0" y="11" font-family="-apple-system, 'Segoe UI', Roboto, sans-serif" font-size="11" fill="#333333" text-anchor="start">Referral</text></g><g transform="translate(320, 594)"><rect width="42" height="18" rx="9" fill="#f5f5f5"/><text x="21" y="13" text-anchor="middle" font-family="-apple-system, 'Segoe UI', Roboto, sans-serif" font-size="11" fill="#333333">10%</text></g><g transform="translate(220, 624)"><text x="0" y="11" font-family="-apple-system, 'Segoe UI', Roboto, sans-serif" font-size="11" fill="#333333" text-anchor="start">Email</text></g><g transform="translate(320, 620)"><rect width="42" height="18" rx="9" fill="#d94a4a"/><text x="21" y="13" text-anchor="middle" font-family="-apple-system, 'Segoe UI', Roboto, sans-serif" font-size="11" fill="#fff">6%</text></g><g transform="translate(480, 472)"><rect x="2" y="3" width="440" height="210" rx="6" fill="#00000018"/><rect width="440" height="210" rx="6" fill="#ffffff" stroke="#d0d0d0"/><text x="16" y="24" font-family="-apple-system, 'Segoe UI', Roboto, sans-serif" font-size="13" font-weight="bold" fill="#333333">devices-card</text></g><g transform="translate(496, 492)"><text x="0" y="13" font-family="-apple-system, 'Segoe UI', Roboto, sans-serif" font-size="13" fill="#333333" text-anchor="start" font-weight="bold">Devices</text></g><g transform="translate(482, 508)"><rect width="436" height="30" fill="#f5f5f5"/><line x1="0" y1="29" x2="436" y2="29" stroke="#d0d0d0"/><text x="54.5" y="20" text-anchor="middle" font-family="-apple-system, 'Segoe UI', Roboto, sans-serif" font-size="13" fill="#4a90d9" font-weight="bold">All</text><rect x="0" y="27" width="109" height="3" fill="#4a90d9"/><text x="163.5" y="20" text-anchor="middle" font-family="-apple-system, 'Segoe UI', Roboto, sans-serif" font-size="13" fill="#888888">Desktop</text><text x="272.5" y="20" text-anchor="middle" font-family="-apple-system, 'Segoe UI', Roboto, sans-serif" font-size="13" fill="#888888">Mobile</text><text x="381.5" y="20" text-anchor="middle" font-family="-apple-system, 'Segoe UI', Roboto, sans-serif" font-size="13" fill="#888888">Tablet</text></g><g transform="translate(496, 556)"><text x="0" y="11" font-family="-apple-system, 'Segoe UI', Roboto, sans-serif" font-size="11" fill="#333333" text-anchor="start">Desktop</text></g><g transform="translate(496, 572)"><rect width="300" height="8" rx="4" fill="#f5f5f5" stroke="#d0d0d0"/><rect width="186" height="8" rx="4" fill="#4a90d9"/></g><g transform="translate(806, 560)"><text x="0" y="11" font-family="-apple-system, 'Segoe UI', Roboto, sans-serif" font-size="11" fill="#333333" text-anchor="start">62%</text></g><g transform="translate(496, 598)"><text x="0" y="11" font-family="-apple-system, 'Segoe UI', Roboto, sans-serif" font-size="11" fill="#333333" text-anchor="start">Mobile</text></g><g transform="translate(496, 614)"><rect width="300" height="8" rx="4" fill="#f5f5f5" stroke="#d0d0d0"/><rect width="90" height="8" rx="4" fill="#4a90d9"/></g><g transform="translate(806, 602)"><text x="0" y="11" font-family="-apple-system, 'Segoe UI', Roboto, sans-serif" font-size="11" fill="#333333" text-anchor="start">30%</text></g><g transform="translate(496, 640)"><text x="0" y="11" font-family="-apple-system, 'Segoe UI', Roboto, sans-serif" font-size="11" fill="#333333" text-anchor="start">Tablet</text></g><g transform="translate(496, 656)"><rect width="300" height="8" rx="4" fill="#f5f5f5" stroke="#d0d0d0"/><rect width="24" height="8" rx="4" fill="#4a90d9"/></g><g transform="translate(806, 644)"><text x="0" y="11" font-family="-apple-system, 'Segoe UI', Roboto, sans-serif" font-size="11" fill="#333333" text-anchor="start">8%</text></g></svg>