<svg xmlns="http://www.w3.org/2000/svg" width="740" height="560" viewBox="0 0 740 560"><rect width="740" height="560" fill="#fff" stroke="#ccc" stroke-width="1"/><g transform="translate(24, 20)"><text x="0" y="24" font-family="-apple-system, 'Segoe UI', Roboto, sans-serif" font-size="24" font-weight="bold" fill="#333333">Project Dashboard</text></g><g transform="translate(24, 52)"><line x1="0" y1="1" x2="692" y2="1" stroke="#d0d0d0" stroke-width="1"/></g><g transform="translate(24, 70)"><g transform="translate(0, 0)"><rect x="2" y="3" width="160" height="100" rx="6" fill="#00000018"/><rect width="160" height="100" rx="6" fill="#ffffff" stroke="#d0d0d0"/><text x="16" y="24" font-family="-apple-system, 'Segoe UI', Roboto, sans-serif" font-size="13" font-weight="bold" fill="#333333">Total Tasks</text><g transform="translate(10, 42)"><text x="0" y="20" font-family="-apple-system, 'Segoe UI', Roboto, sans-serif" font-size="20" font-weight="bold" fill="#333333">128</text></g><g transform="translate(10, 78)"><text x="0" y="11" font-family="-apple-system, 'Segoe UI', Roboto, sans-serif" font-size="11" fill="#333333" text-anchor="start">tasks created</text></g></g><g transform="translate(176, 0)"><rect x="2" y="3" width="160" height="100" rx="6" fill="#00000018"/><rect width="160" height="100" rx="6" fill="#ffffff" stroke="#d0d0d0"/><text x="16" y="24" font-family="-apple-system, 'Segoe UI', Roboto, sans-serif" font-size="13" font-weight="bold" fill="#333333">Completed</text><g transform="translate(10, 42)"><text x="0" y="20" font-family="-apple-system, 'Segoe UI', Roboto, sans-serif" font-size="20" font-weight="bold" fill="#333333">94</text></g><g transform="translate(10, 78)"><rect width="50" height="18" rx="9" fill="#4caf50"/><text x="25" y="13" text-anchor="middle" font-family="-apple-system, 'Segoe UI', Roboto, sans-serif" font-size="11" fill="#fff">73%</text></g></g><g transform="translate(352, 0)"><rect x="2" y="3" width="160" height="100" rx="6" fill="#00000018"/><rect width="160" height="100" rx="6" fill="#ffffff" stroke="#d0d0d0"/><text x="16" y="24" font-family="-apple-system, 'Segoe UI', Roboto, sans-serif" font-size="13" font-weight="bold" fill="#333333">In Progress</text><g transform="translate(10, 42)"><text x="0" y="20" font-family="-apple-system, 'Segoe UI', Roboto, sans-serif" font-size="20" font-weight="bold" fill="#333333">21</text></g><g transform="translate(10, 78)"><rect width="50" height="18" rx="9" fill="#4a90d9"/><text x="25" y="13" text-anchor="middle" font-family="-apple-system, 'Segoe UI', Roboto, sans-serif" font-size="11" fill="#fff">Active</text></g></g><g transform="translate(528, 0)"><rect x="2" y="3" width="160" height="100" rx="6" fill="#00000018"/><rect width="160" height="100" rx="6" fill="#ffffff" stroke="#d0d0d0"/><text x="16" y="24" font-family="-apple-system, 'Segoe UI', Roboto, sans-serif" font-size="13" font-weight="bold" fill="#333333">Overdue</text><g transform="translate(10, 42)"><text x="0" y="20" font-family="-apple-system, 'Segoe UI', Roboto, sans-serif" font-size="20" font-weight="bold" fill="#333333">13</text></g><g transform="translate(10, 78)"><rect width="50" height="18" rx="9" fill="#d94a4a"/><text x="25" y="13" text-anchor="middle" font-family="-apple-system, 'Segoe UI', Roboto, sans-serif" font-size="11" fill="#fff">Alert</text></g></g></g><g transform="translate(24, 190)"><rect width="692" height="340" rx="4" fill="#f5f5f5" stroke="#d0d0d0"/><text x="12" y="20" font-family="-apple-system, 'Segoe UI', Roboto, sans-serif" font-size="11" font-weight="bold" fill="#333333">activity</text><g transform="translate(16, 44)"><g transform="translate(0, 0)"><text x="0" y="20" font-family="-apple-system, 'Segoe UI', Roboto, sans-serif" font-size="20" font-weight="bold" fill="#333333">Recent Activity</text></g></g><g transform="translate(16, 88)"><line x1="0" y1="1" x2="660" y2="1" stroke="#d0d0d0" stroke-width="1"/></g><g transform="translate(16, 102)"><g transform="translate(0, 0)"><circle cx="12" cy="12" r="12" fill="#4a90d9"/><text x="12" y="15.36" text-anchor="middle" font-family="-apple-system, 'Segoe UI', Roboto, sans-serif" font-size="9.600000000000001" fill="#fff">JD</text></g><g transform="translate(34, 2)"><text x="0" y="13" font-family="-apple-system, 'Segoe UI', Roboto, sans-serif" font-size="13" fill="#333333" text-anchor="start">Jane updated the login page</text></g><g transform="translate(144, 2)"><text x="0" y="11" font-family="-apple-system, 'Segoe UI', Roboto, sans-serif" font-size="11" fill="#333333" text-anchor="start">2 min ago</text></g></g><g transform="translate(16, 138)"><g transform="translate(0, 0)"><circle cx="12" cy="12" r="12" fill="#4caf50"/><text x="12" y="15.36" text-anchor="middle" font-family="-apple-system, 'Segoe UI', Roboto, sans-serif" font-size="9.600000000000001" fill="#fff">BM</text></g><g transform="translate(34, 2)"><text x="0" y="13" font-family="-apple-system, 'Segoe UI', Roboto, sans-serif" font-size="13" fill="#333333" text-anchor="start">Bob completed code review</text></g><g transform="translate(144, 2)"><text x="0" y="11" font-family="-apple-system, 'Segoe UI', Roboto, sans-serif" font-size="11" fill="#333333" text-anchor="start">15 min ago</text></g></g><g transform="translate(16, 174)"><g transform="translate(0, 0)"><circle cx="12" cy="12" r="12" fill="#ff9800"/><text x="12" y="15.36" text-anchor="middle" font-family="-apple-system, 'Segoe UI', Roboto, sans-serif" font-size="9.600000000000001" fill="#fff">AS</text></g><g transform="translate(34, 2)"><text x="0" y="13" font-family="-apple-system, 'Segoe UI', Roboto, sans-serif" font-size="13" fill="#333333" text-anchor="start">Alice deployed to staging</text></g><g transform="translate(144, 2)"><text x="0" y="11" font-family="-apple-system, 'Segoe UI', Roboto, sans-serif" font-size="11" fill="#333333" text-anchor="start">1 hr ago</text></g></g><g transform="translate(16, 210)"><g transform="translate(0, 0)"><circle cx="12" cy="12" r="12" fill="#9c27b0"/><text x="12" y="15.36" text-anchor="middle" font-family="-apple-system, 'Segoe UI', Roboto, sans-serif" font-size="9.600000000000001" fill="#fff">TW</text></g><g transform="translate(34, 2)"><text x="0" y="13" font-family="-apple-system, 'Segoe UI', Roboto, sans-serif" font-size="13" fill="#333333" text-anchor="start">Tom created new issue #247</text></g><g transform="translate(144, 2)"><text x="0" y="11" font-family="-apple-system, 'Segoe UI', Roboto, sans-serif" font-size="11" fill="#333333" text-anchor="start">2 hr ago</text></g></g><g transform="translate(16, 246)"><g transform="translate(0, 0)"><circle cx="12" cy="12" r="12" fill="#d94a4a"/><text x="12" y="15.36" text-anchor="middle" font-family="-apple-system, 'Segoe UI', Roboto, sans-serif" font-size="9.600000000000001" fill="#fff">CD</text></g><g transform="translate(34, 2)"><text x="0" y="13" font-family="-apple-system, 'Segoe UI', Roboto, sans-serif" font-size="13" fill="#333333" text-anchor="start">Carol merged PR #189</text></g><g transform="translate(144, 2)"><text x="0" y="11" font-family="-apple-system, 'Segoe UI', Roboto, sans-serif" font-size="11" fill="#333333" text-anchor="start">3 hr ago</text></g></g></g></svg>