<svg xmlns="http://www.w3.org/2000/svg" width="960" height="620" viewBox="0 0 960 620"><rect width="960" height="620" fill="#fff" stroke="#ccc" stroke-width="1"/><g transform="translate(0, 0)"><rect x="0" y="8" width="960" height="40" rx="4" fill="none" stroke="#a0a0a0"/><rect x="8" y="0" width="61" height="16" fill="#ffffff"/><text x="16" y="13" font-family="-apple-system, 'Segoe UI', Roboto, sans-serif" font-size="11" fill="#888888">topbar</text></g><g transform="translate(16, 16)"><text x="0" y="20" font-family="-apple-system, 'Segoe UI', Roboto, sans-serif" font-size="20" font-weight="bold" fill="#333333">Mail</text></g><g transform="translate(240, 9)"><rect width="440" height="30" rx="4" fill="#ffffff" stroke="#d0d0d0"/><text x="8" y="20" font-family="-apple-system, 'Segoe UI', Roboto, sans-serif" font-size="13" fill="#aaaaaa">Search mail...</text></g><g transform="translate(780, 12)"><g transform="scale(1)" fill="none" stroke="#888888" stroke-width="2" stroke-linecap="round" stroke-linejoin="round"><path d="M10.268 21a2 2 0 0 0 3.464 0"/><path d="M3.262 15.326A1 1 0 0 0 4 17h16a1 1 0 0 0 .74-1.673C19.41 13.956 18 12.499 18 8A6 6 0 0 0 6 8c0 4.499-1.411 5.956-2.738 7.326"/></g></g><g transform="translate(816, 12)"><g transform="scale(1)" fill="none" stroke="#888888" stroke-width="2" stroke-linecap="round" stroke-linejoin="round"><path d="M9.671 4.136a2.34 2.34 0 0 1 4.659 0 2.34 2.34 0 0 0 3.319 1.915 2.34 2.34 0 0 1 2.33 4.033 2.34 2.34 0 0 0 0 3.831 2.34 2.34 0 0 1-2.33 4.033 2.34 2.34 0 0 0-3.319 1.915 2.34 2.34 0 0 1-4.659 0 2.34 2.34 0 0 0-3.32-1.915 2.34 2.34 0 0 1-2.33-4.033 2.34 2.34 0 0 0 0-3.831A2.34 2.34 0 0 1 6.35 6.051a2.34 2.34 0 0 0 3.319-1.915"/><circle cx="12" cy="12" r="3"/></g></g><g transform="translate(856, 8)"><rect width="32" height="32" fill="#f5f5f5" stroke="#d0d0d0" rx="4"/><line x1="0" y1="0" x2="32" y2="32" stroke="#d0d0d0"/><line x1="32" y1="0" x2="0" y2="32" stroke="#d0d0d0"/><text x="16" y="21" text-anchor="middle" font-family="-apple-system, 'Segoe UI', Roboto, sans-serif" font-size="11" fill="#aaaaaa">Me</text></g><g transform="translate(0, 48)"><rect x="0" y="8" width="200" height="564" rx="4" fill="none" stroke="#a0a0a0"/><rect x="8" y="0" width="68.5" height="16" fill="#ffffff"/><text x="16" y="13" font-family="-apple-system, 'Segoe UI', Roboto, sans-serif" font-size="11" fill="#888888">sidebar</text></g><g transform="translate(16, 64)"><rect width="168" height="36" rx="4" fill="#4a90d9" stroke="#3a7bc8"/><text x="84" y="23" text-anchor="middle" font-family="-apple-system, 'Segoe UI', Roboto, sans-serif" font-size="13" fill="#ffffff">Compose</text></g><g transform="translate(8, 116)"><rect width="184" height="216" rx="4" fill="#ffffff" stroke="#d0d0d0"/><rect x="1" y="1" width="182" height="24" fill="#e3f0ff" rx="2"/><text x="10" y="16" font-family="-apple-system, 'Segoe UI', Roboto, sans-serif" font-size="13" fill="#333333">• Inbox (12)</text><text x="10" y="40" font-family="-apple-system, 'Segoe UI', Roboto, sans-serif" font-size="13" fill="#333333">• Starred</text><text x="10" y="64" font-family="-apple-system, 'Segoe UI', Roboto, sans-serif" font-size="13" fill="#333333">• Snoozed</text><text x="10" y="88" font-family="-apple-system, 'Segoe UI', Roboto, sans-serif" font-size="13" fill="#333333">• Sent</text><text x="10" y="112" font-family="-apple-system, 'Segoe UI', Roboto, sans-serif" font-size="13" fill="#333333">• Drafts (3)</text><text x="10" y="136" font-family="-apple-system, 'Segoe UI', Roboto, sans-serif" font-size="13" fill="#333333">• Spam</text><text x="10" y="160" font-family="-apple-system, 'Segoe UI', Roboto, sans-serif" font-size="13" fill="#333333">• Trash</text><text x="10" y="184" font-family="-apple-system, 'Segoe UI', Roboto, sans-serif" font-size="13" fill="#333333">• Important</text><text x="10" y="208" font-family="-apple-system, 'Segoe UI', Roboto, sans-serif" font-size="13" fill="#333333">• All Mail</text></g><g transform="translate(16, 344)"><line x1="0" y1="1" x2="168" y2="1" stroke="#d0d0d0" stroke-width="1"/></g><g transform="translate(16, 360)"><text x="0" y="11" font-family="-apple-system, 'Segoe UI', Roboto, sans-serif" font-size="11" fill="#333333" text-anchor="start" font-weight="bold">Labels</text></g><g transform="translate(8, 380)"><rect width="184" height="96" rx="4" fill="#ffffff" stroke="#d0d0d0"/><text x="10" y="16" font-family="-apple-system, 'Segoe UI', Roboto, sans-serif" font-size="13" fill="#333333">• Work</text><text x="10" y="40" font-family="-apple-system, 'Segoe UI', Roboto, sans-serif" font-size="13" fill="#333333">• Personal</text><text x="10" y="64" font-family="-apple-system, 'Segoe UI', Roboto, sans-serif" font-size="13" fill="#333333">• Receipts</text><text x="10" y="88" font-family="-apple-system, 'Segoe UI', Roboto, sans-serif" font-size="13" fill="#333333">• Newsletters</text></g><g transform="translate(16, 488)"><line x1="0" y1="1" x2="168" y2="1" stroke="#d0d0d0" stroke-width="1"/></g><g transform="translate(16, 504)"><text x="0" y="11" font-family="-apple-system, 'Segoe UI', Roboto, sans-serif" font-size="11" fill="#333333" text-anchor="start">45% of 15 GB used</text></g><g transform="translate(16, 524)"><rect width="168" height="6" rx="3" fill="#f5f5f5" stroke="#d0d0d0"/><rect width="75.60000000000001" height="6" rx="3" fill="#4a90d9"/></g><g transform="translate(200, 48)"><rect x="0" y="8" width="760" height="32" rx="4" fill="none" stroke="#a0a0a0"/><rect x="8" y="0" width="68.5" height="16" fill="#ffffff"/><text x="16" y="13" font-family="-apple-system, 'Segoe UI', Roboto, sans-serif" font-size="11" fill="#888888">toolbar</text></g><g transform="translate(216, 58)"><rect x="0" y="2" width="14" height="14" rx="2" fill="#ffffff" stroke="#a0a0a0"/><text x="20" y="14" font-family="-apple-system, 'Segoe UI', Roboto, sans-serif" font-size="13" fill="#333333">select-all</text></g><g transform="translate(250, 55)"><rect width="70" height="26" rx="4" fill="#f5f5f5" stroke="#a0a0a0"/><text x="35" y="18" text-anchor="middle" font-family="-apple-system, 'Segoe UI', Roboto, sans-serif" font-size="13" fill="#333333">Archive</text></g><g transform="translate(326, 55)"><rect width="60" height="26" rx="4" fill="#d94a4a" stroke="#b33a3a"/><text x="30" y="18" text-anchor="middle" font-family="-apple-system, 'Segoe UI', Roboto, sans-serif" font-size="13" fill="#ffffff">Delete</text></g><g transform="translate(392, 55)"><rect width="54" height="26" rx="4" fill="#f5f5f5" stroke="#a0a0a0"/><text x="27" y="18" text-anchor="middle" font-family="-apple-system, 'Segoe UI', Roboto, sans-serif" font-size="13" fill="#333333">Move</text></g><g transform="translate(452, 55)"><rect width="54" height="26" rx="4" fill="#f5f5f5" stroke="#a0a0a0"/><text x="27" y="18" text-anchor="middle" font-family="-apple-system, 'Segoe UI', Roboto, sans-serif" font-size="13" fill="#333333">Label</text></g><g transform="translate(830, 62)"><text x="0" y="11" font-family="-apple-system, 'Segoe UI', Roboto, sans-serif" font-size="11" fill="#333333" text-anchor="start">1–50 of 1,284</text></g><g transform="translate(910, 55)"><rect width="20" height="26" rx="4" fill="#f5f5f5" stroke="#a0a0a0"/><text x="10" y="18" text-anchor="middle" font-family="-apple-system, 'Segoe UI', Roboto, sans-serif" font-size="13" fill="#333333">&lt;</text></g><g transform="translate(934, 55)"><rect width="20" height="26" rx="4" fill="#f5f5f5" stroke="#a0a0a0"/><text x="10" y="18" text-anchor="middle" font-family="-apple-system, 'Segoe UI', Roboto, sans-serif" font-size="13" fill="#333333">&gt;</text></g><g transform="translate(200, 88)"><rect x="0" y="8" width="760" height="44" rx="4" fill="none" stroke="#a0a0a0"/><rect x="8" y="0" width="61" height="16" fill="#ffffff"/><text x="16" y="13" font-family="-apple-system, 'Segoe UI', Roboto, sans-serif" font-size="11" fill="#888888">email1</text></g><g transform="translate(216, 104)"><rect x="0" y="2" width="14" height="14" rx="2" fill="#ffffff" stroke="#a0a0a0"/><text x="20" y="14" font-family="-apple-system, 'Segoe UI', Roboto, sans-serif" font-size="13" fill="#333333">e1</text></g><g transform="translate(246, 102)"><g transform="scale(0.75)" fill="none" stroke="#888888" stroke-width="2" stroke-linecap="round" stroke-linejoin="round"><path d="M11.525 2.295a.53.53 0 0 1 .95 0l2.31 4.679a2.123 2.123 0 0 0 1.595 1.16l5.166.756a.53.53 0 0 1 .294.904l-3.736 3.638a2.123 2.123 0 0 0-.611 1.878l.882 5.14a.53.53 0 0 1-.771.56l-4.618-2.428a2.122 2.122 0 0 0-1.973 0L6.396 21.01a.53.53 0 0 1-.77-.56l.881-5.139a2.122 2.122 0 0 0-.611-1.879L2.16 9.795a.53.53 0 0 1 .294-.906l5.165-.755a2.122 2.122 0 0 0 1.597-1.16z"/></g></g><g transform="translate(274, 102)"><text x="0" y="13" font-family="-apple-system, 'Segoe UI', Roboto, sans-serif" font-size="13" fill="#333333" text-anchor="start" font-weight="bold">Alice Johnson</text></g><g transform="translate(274, 120)"><text x="0" y="11" font-family="-apple-system, 'Segoe UI', Roboto, sans-serif" font-size="11" fill="#333333" text-anchor="start">Q1 Planning Document — Here's the draft for our quarterly goals...</text></g><g transform="translate(880, 102)"><text x="0" y="11" font-family="-apple-system, 'Segoe UI', Roboto, sans-serif" font-size="11" fill="#333333" text-anchor="start">10:42 AM</text></g><g transform="translate(200, 140)"><rect x="0" y="8" width="760" height="44" rx="4" fill="none" stroke="#a0a0a0"/><rect x="8" y="0" width="61" height="16" fill="#ffffff"/><text x="16" y="13" font-family="-apple-system, 'Segoe UI', Roboto, sans-serif" font-size="11" fill="#888888">email2</text></g><g transform="translate(216, 156)"><rect x="0" y="2" width="14" height="14" rx="2" fill="#ffffff" stroke="#a0a0a0"/><text x="20" y="14" font-family="-apple-system, 'Segoe UI', Roboto, sans-serif" font-size="13" fill="#333333">e2</text></g><g transform="translate(246, 154)"><g transform="scale(0.75)" fill="none" stroke="#888888" stroke-width="2" stroke-linecap="round" stroke-linejoin="round"><path d="M11.525 2.295a.53.53 0 0 1 .95 0l2.31 4.679a2.123 2.123 0 0 0 1.595 1.16l5.166.756a.53.53 0 0 1 .294.904l-3.736 3.638a2.123 2.123 0 0 0-.611 1.878l.882 5.14a.53.53 0 0 1-.771.56l-4.618-2.428a2.122 2.122 0 0 0-1.973 0L6.396 21.01a.53.53 0 0 1-.77-.56l.881-5.139a2.122 2.122 0 0 0-.611-1.879L2.16 9.795a.53.53 0 0 1 .294-.906l5.165-.755a2.122 2.122 0 0 0 1.597-1.16z"/></g></g><g transform="translate(274, 154)"><text x="0" y="13" font-family="-apple-system, 'Segoe UI', Roboto, sans-serif" font-size="13" fill="#333333" text-anchor="start" font-weight="bold">GitHub</text></g><g transform="translate(274, 172)"><text x="0" y="11" font-family="-apple-system, 'Segoe UI', Roboto, sans-serif" font-size="11" fill="#333333" text-anchor="start">[glint] Pull Request #247: Add wireframe markup support...</text></g><g transform="translate(880, 154)"><text x="0" y="11" font-family="-apple-system, 'Segoe UI', Roboto, sans-serif" font-size="11" fill="#333333" text-anchor="start">9:15 AM</text></g><g transform="translate(830, 154)"><rect width="42" height="18" rx="9" fill="#4a90d9"/><text x="21" y="13" text-anchor="middle" font-family="-apple-system, 'Segoe UI', Roboto, sans-serif" font-size="11" fill="#fff">Work</text></g><g transform="translate(200, 192)"><rect x="0" y="8" width="760" height="44" rx="4" fill="none" stroke="#a0a0a0"/><rect x="8" y="0" width="61" height="16" fill="#ffffff"/><text x="16" y="13" font-family="-apple-system, 'Segoe UI', Roboto, sans-serif" font-size="11" fill="#888888">email3</text></g><g transform="translate(216, 208)"><rect x="0" y="2" width="14" height="14" rx="2" fill="#ffffff" stroke="#a0a0a0"/><text x="20" y="14" font-family="-apple-system, 'Segoe UI', Roboto, sans-serif" font-size="13" fill="#333333">e3</text></g><g transform="translate(246, 206)"><g transform="scale(0.75)" fill="none" stroke="#888888" stroke-width="2" stroke-linecap="round" stroke-linejoin="round"><path d="M11.525 2.295a.53.53 0 0 1 .95 0l2.31 4.679a2.123 2.123 0 0 0 1.595 1.16l5.166.756a.53.53 0 0 1 .294.904l-3.736 3.638a2.123 2.123 0 0 0-.611 1.878l.882 5.14a.53.53 0 0 1-.771.56l-4.618-2.428a2.122 2.122 0 0 0-1.973 0L6.396 21.01a.53.53 0 0 1-.77-.56l.881-5.139a2.122 2.122 0 0 0-.611-1.879L2.16 9.795a.53.53 0 0 1 .294-.906l5.165-.755a2.122 2.122 0 0 0 1.597-1.16z"/></g></g><g transform="translate(274, 206)"><text x="0" y="13" font-family="-apple-system, 'Segoe UI', Roboto, sans-serif" font-size="13" fill="#333333" text-anchor="start">Bob Martinez</text></g><g transform="translate(274, 224)"><text x="0" y="11" font-family="-apple-system, 'Segoe UI', Roboto, sans-serif" font-size="11" fill="#333333" text-anchor="start">Re: Team offsite — Sounds great! I'll bring the projector...</text></g><g transform="translate(874, 206)"><text x="0" y="11" font-family="-apple-system, 'Segoe UI', Roboto, sans-serif" font-size="11" fill="#333333" text-anchor="start">Yesterday</text></g><g transform="translate(200, 244)"><rect x="0" y="8" width="760" height="44" rx="4" fill="none" stroke="#a0a0a0"/><rect x="8" y="0" width="61" height="16" fill="#ffffff"/><text x="16" y="13" font-family="-apple-system, 'Segoe UI', Roboto, sans-serif" font-size="11" fill="#888888">email4</text></g><g transform="translate(216, 260)"><rect x="0" y="2" width="14" height="14" rx="2" fill="#ffffff" stroke="#a0a0a0"/><text x="20" y="14" font-family="-apple-system, 'Segoe UI', Roboto, sans-serif" font-size="13" fill="#333333">e4</text></g><g transform="translate(246, 258)"><g transform="scale(0.75)" fill="none" stroke="#888888" stroke-width="2" stroke-linecap="round" stroke-linejoin="round"><path d="M11.525 2.295a.53.53 0 0 1 .95 0l2.31 4.679a2.123 2.123 0 0 0 1.595 1.16l5.166.756a.53.53 0 0 1 .294.904l-3.736 3.638a2.123 2.123 0 0 0-.611 1.878l.882 5.14a.53.53 0 0 1-.771.56l-4.618-2.428a2.122 2.122 0 0 0-1.973 0L6.396 21.01a.53.53 0 0 1-.77-.56l.881-5.139a2.122 2.122 0 0 0-.611-1.879L2.16 9.795a.53.53 0 0 1 .294-.906l5.165-.755a2.122 2.122 0 0 0 1.597-1.16z"/></g></g><g transform="translate(274, 258)"><text x="0" y="13" font-family="-apple-system, 'Segoe UI', Roboto, sans-serif" font-size="13" fill="#333333" text-anchor="start">Stripe</text></g><g transform="translate(274, 276)"><text x="0" y="11" font-family="-apple-system, 'Segoe UI', Roboto, sans-serif" font-size="11" fill="#333333" text-anchor="start">Your invoice for January 2026 — Invoice #INV-2026-0142...</text></g><g transform="translate(874, 258)"><text x="0" y="11" font-family="-apple-system, 'Segoe UI', Roboto, sans-serif" font-size="11" fill="#333333" text-anchor="start">Yesterday</text></g><g transform="translate(818, 258)"><rect width="58" height="18" rx="9" fill="#f5f5f5"/><text x="29" y="13" text-anchor="middle" font-family="-apple-system, 'Segoe UI', Roboto, sans-serif" font-size="11" fill="#333333">Receipts</text></g><g transform="translate(200, 296)"><rect x="0" y="8" width="760" height="44" rx="4" fill="none" stroke="#a0a0a0"/><rect x="8" y="0" width="61" height="16" fill="#ffffff"/><text x="16" y="13" font-family="-apple-system, 'Segoe UI', Roboto, sans-serif" font-size="11" fill="#888888">email5</text></g><g transform="translate(216, 312)"><rect x="0" y="2" width="14" height="14" rx="2" fill="#ffffff" stroke="#a0a0a0"/><text x="20" y="14" font-family="-apple-system, 'Segoe UI', Roboto, sans-serif" font-size="13" fill="#333333">e5</text></g><g transform="translate(246, 310)"><g transform="scale(0.75)" fill="none" stroke="#888888" stroke-width="2" stroke-linecap="round" stroke-linejoin="round"><path d="M11.525 2.295a.53.53 0 0 1 .95 0l2.31 4.679a2.123 2.123 0 0 0 1.595 1.16l5.166.756a.53.53 0 0 1 .294.904l-3.736 3.638a2.123 2.123 0 0 0-.611 1.878l.882 5.14a.53.53 0 0 1-.771.56l-4.618-2.428a2.122 2.122 0 0 0-1.973 0L6.396 21.01a.53.53 0 0 1-.77-.56l.881-5.139a2.122 2.122 0 0 0-.611-1.879L2.16 9.795a.53.53 0 0 1 .294-.906l5.165-.755a2.122 2.122 0 0 0 1.597-1.16z"/></g></g><g transform="translate(274, 310)"><text x="0" y="13" font-family="-apple-system, 'Segoe UI', Roboto, sans-serif" font-size="13" fill="#333333" text-anchor="start">Design Team</text></g><g transform="translate(274, 328)"><text x="0" y="11" font-family="-apple-system, 'Segoe UI', Roboto, sans-serif" font-size="11" fill="#333333" text-anchor="start">New mockups ready for review — Hi team, I've uploaded the...</text></g><g transform="translate(886, 310)"><text x="0" y="11" font-family="-apple-system, 'Segoe UI', Roboto, sans-serif" font-size="11" fill="#333333" text-anchor="start">Feb 14</text></g><g transform="translate(830, 310)"><rect width="42" height="18" rx="9" fill="#4a90d9"/><text x="21" y="13" text-anchor="middle" font-family="-apple-system, 'Segoe UI', Roboto, sans-serif" font-size="11" fill="#fff">Work</text></g><g transform="translate(200, 348)"><rect x="0" y="8" width="760" height="44" rx="4" fill="none" stroke="#a0a0a0"/><rect x="8" y="0" width="61" height="16" fill="#ffffff"/><text x="16" y="13" font-family="-apple-system, 'Segoe UI', Roboto, sans-serif" font-size="11" fill="#888888">email6</text></g><g transform="translate(216, 364)"><rect x="0" y="2" width="14" height="14" rx="2" fill="#ffffff" stroke="#a0a0a0"/><text x="20" y="14" font-family="-apple-system, 'Segoe UI', Roboto, sans-serif" font-size="13" fill="#333333">e6</text></g><g transform="translate(246, 362)"><g transform="scale(0.75)" fill="none" stroke="#888888" stroke-width="2" stroke-linecap="round" stroke-linejoin="round"><path d="M11.525 2.295a.53.53 0 0 1 .95 0l2.31 4.679a2.123 2.123 0 0 0 1.595 1.16l5.166.756a.53.53 0 0 1 .294.904l-3.736 3.638a2.123 2.123 0 0 0-.611 1.878l.882 5.14a.53.53 0 0 1-.771.56l-4.618-2.428a2.122 2.122 0 0 0-1.973 0L6.396 21.01a.53.53 0 0 1-.77-.56l.881-5.139a2.122 2.122 0 0 0-.611-1.879L2.16 9.795a.53.53 0 0 1 .294-.906l5.165-.755a2.122 2.122 0 0 0 1.597-1.16z"/></g></g><g transform="translate(274, 362)"><text x="0" y="13" font-family="-apple-system, 'Segoe UI', Roboto, sans-serif" font-size="13" fill="#333333" text-anchor="start">Newsletter</text></g><g transform="translate(274, 380)"><text x="0" y="11" font-family="-apple-system, 'Segoe UI', Roboto, sans-serif" font-size="11" fill="#333333" text-anchor="start">This week in tech — Top stories: AI developments, new...</text></g><g transform="translate(886, 362)"><text x="0" y="11" font-family="-apple-system, 'Segoe UI', Roboto, sans-serif" font-size="11" fill="#333333" text-anchor="start">Feb 14</text></g><g transform="translate(200, 400)"><rect x="0" y="8" width="760" height="44" rx="4" fill="none" stroke="#a0a0a0"/><rect x="8" y="0" width="61" height="16" fill="#ffffff"/><text x="16" y="13" font-family="-apple-system, 'Segoe UI', Roboto, sans-serif" font-size="11" fill="#888888">email7</text></g><g transform="translate(216, 416)"><rect x="0" y="2" width="14" height="14" rx="2" fill="#ffffff" stroke="#a0a0a0"/><text x="20" y="14" font-family="-apple-system, 'Segoe UI', Roboto, sans-serif" font-size="13" fill="#333333">e7</text></g><g transform="translate(246, 414)"><g transform="scale(0.75)" fill="none" stroke="#888888" stroke-width="2" stroke-linecap="round" stroke-linejoin="round"><path d="M11.525 2.295a.53.53 0 0 1 .95 0l2.31 4.679a2.123 2.123 0 0 0 1.595 1.16l5.166.756a.53.53 0 0 1 .294.904l-3.736 3.638a2.123 2.123 0 0 0-.611 1.878l.882 5.14a.53.53 0 0 1-.771.56l-4.618-2.428a2.122 2.122 0 0 0-1.973 0L6.396 21.01a.53.53 0 0 1-.77-.56l.881-5.139a2.122 2.122 0 0 0-.611-1.879L2.16 9.795a.53.53 0 0 1 .294-.906l5.165-.755a2.122 2.122 0 0 0 1.597-1.16z"/></g></g><g transform="translate(274, 414)"><text x="0" y="13" font-family="-apple-system, 'Segoe UI', Roboto, sans-serif" font-size="13" fill="#333333" text-anchor="start">Carol Davis</text></g><g transform="translate(274, 432)"><text x="0" y="11" font-family="-apple-system, 'Segoe UI', Roboto, sans-serif" font-size="11" fill="#333333" text-anchor="start">Conference talk submission — I submitted our proposal for...</text></g><g transform="translate(886, 414)"><text x="0" y="11" font-family="-apple-system, 'Segoe UI', Roboto, sans-serif" font-size="11" fill="#333333" text-anchor="start">Feb 13</text></g><g transform="translate(200, 452)"><rect x="0" y="8" width="760" height="44" rx="4" fill="none" stroke="#a0a0a0"/><rect x="8" y="0" width="61" height="16" fill="#ffffff"/><text x="16" y="13" font-family="-apple-system, 'Segoe UI', Roboto, sans-serif" font-size="11" fill="#888888">email8</text></g><g transform="translate(216, 468)"><rect x="0" y="2" width="14" height="14" rx="2" fill="#ffffff" stroke="#a0a0a0"/><text x="20" y="14" font-family="-apple-system, 'Segoe UI', Roboto, sans-serif" font-size="13" fill="#333333">e8</text></g><g transform="translate(246, 466)"><g transform="scale(0.75)" fill="none" stroke="#888888" stroke-width="2" stroke-linecap="round" stroke-linejoin="round"><path d="M11.525 2.295a.53.53 0 0 1 .95 0l2.31 4.679a2.123 2.123 0 0 0 1.595 1.16l5.166.756a.53.53 0 0 1 .294.904l-3.736 3.638a2.123 2.123 0 0 0-.611 1.878l.882 5.14a.53.53 0 0 1-.771.56l-4.618-2.428a2.122 2.122 0 0 0-1.973 0L6.396 21.01a.53.53 0 0 1-.77-.56l.881-5.139a2.122 2.122 0 0 0-.611-1.879L2.16 9.795a.53.53 0 0 1 .294-.906l5.165-.755a2.122 2.122 0 0 0 1.597-1.16z"/></g></g><g transform="translate(274, 466)"><text x="0" y="13" font-family="-apple-system, 'Segoe UI', Roboto, sans-serif" font-size="13" fill="#333333" text-anchor="start">Vercel</text></g><g transform="translate(274, 484)"><text x="0" y="11" font-family="-apple-system, 'Segoe UI', Roboto, sans-serif" font-size="11" fill="#333333" text-anchor="start">Deployment successful — glint-app was deployed to production...</text></g><g transform="translate(886, 466)"><text x="0" y="11" font-family="-apple-system, 'Segoe UI', Roboto, sans-serif" font-size="11" fill="#333333" text-anchor="start">Feb 13</text></g><g transform="translate(200, 504)"><rect x="0" y="8" width="760" height="44" rx="4" fill="none" stroke="#a0a0a0"/><rect x="8" y="0" width="61" height="16" fill="#ffffff"/><text x="16" y="13" font-family="-apple-system, 'Segoe UI', Roboto, sans-serif" font-size="11" fill="#888888">email9</text></g><g transform="translate(216, 520)"><rect x="0" y="2" width="14" height="14" rx="2" fill="#ffffff" stroke="#a0a0a0"/><text x="20" y="14" font-family="-apple-system, 'Segoe UI', Roboto, sans-serif" font-size="13" fill="#333333">e9</text></g><g transform="translate(246, 518)"><g transform="scale(0.75)" fill="none" stroke="#888888" stroke-width="2" stroke-linecap="round" stroke-linejoin="round"><path d="M11.525 2.295a.53.53 0 0 1 .95 0l2.31 4.679a2.123 2.123 0 0 0 1.595 1.16l5.166.756a.53.53 0 0 1 .294.904l-3.736 3.638a2.123 2.123 0 0 0-.611 1.878l.882 5.14a.53.53 0 0 1-.771.56l-4.618-2.428a2.122 2.122 0 0 0-1.973 0L6.396 21.01a.53.53 0 0 1-.77-.56l.881-5.139a2.122 2.122 0 0 0-.611-1.879L2.16 9.795a.53.53 0 0 1 .294-.906l5.165-.755a2.122 2.122 0 0 0 1.597-1.16z"/></g></g><g transform="translate(274, 518)"><text x="0" y="13" font-family="-apple-system, 'Segoe UI', Roboto, sans-serif" font-size="13" fill="#333333" text-anchor="start">Dan Wilson</text></g><g transform="translate(274, 536)"><text x="0" y="11" font-family="-apple-system, 'Segoe UI', Roboto, sans-serif" font-size="11" fill="#333333" text-anchor="start">Re: Code review feedback — Thanks for the thorough review!...</text></g><g transform="translate(886, 518)"><text x="0" y="11" font-family="-apple-system, 'Segoe UI', Roboto, sans-serif" font-size="11" fill="#333333" text-anchor="start">Feb 12</text></g><g transform="translate(200, 556)"><rect x="0" y="8" width="760" height="44" rx="4" fill="none" stroke="#a0a0a0"/><rect x="8" y="0" width="68.5" height="16" fill="#ffffff"/><text x="16" y="13" font-family="-apple-system, 'Segoe UI', Roboto, sans-serif" font-size="11" fill="#888888">email10</text></g><g transform="translate(216, 572)"><rect x="0" y="2" width="14" height="14" rx="2" fill="#ffffff" stroke="#a0a0a0"/><text x="20" y="14" font-family="-apple-system, 'Segoe UI', Roboto, sans-serif" font-size="13" fill="#333333">e10</text></g><g transform="translate(246, 570)"><g transform="scale(0.75)" fill="none" stroke="#888888" stroke-width="2" stroke-linecap="round" stroke-linejoin="round"><path d="M11.525 2.295a.53.53 0 0 1 .95 0l2.31 4.679a2.123 2.123 0 0 0 1.595 1.16l5.166.756a.53.53 0 0 1 .294.904l-3.736 3.638a2.123 2.123 0 0 0-.611 1.878l.882 5.14a.53.53 0 0 1-.771.56l-4.618-2.428a2.122 2.122 0 0 0-1.973 0L6.396 21.01a.53.53 0 0 1-.77-.56l.881-5.139a2.122 2.122 0 0 0-.611-1.879L2.16 9.795a.53.53 0 0 1 .294-.906l5.165-.755a2.122 2.122 0 0 0 1.597-1.16z"/></g></g><g transform="translate(274, 570)"><text x="0" y="13" font-family="-apple-system, 'Segoe UI', Roboto, sans-serif" font-size="13" fill="#333333" text-anchor="start">Security Team</text></g><g transform="translate(274, 588)"><text x="0" y="11" font-family="-apple-system, 'Segoe UI', Roboto, sans-serif" font-size="11" fill="#333333" text-anchor="start">Monthly security report — No critical issues found in...</text></g><g transform="translate(886, 570)"><text x="0" y="11" font-family="-apple-system, 'Segoe UI', Roboto, sans-serif" font-size="11" fill="#333333" text-anchor="start">Feb 12</text></g></svg>