<svg xmlns="http://www.w3.org/2000/svg" width="400" height="500" viewBox="0 0 400 500"><rect width="400" height="500" fill="#fff" stroke="#ccc" stroke-width="1"/><g transform="translate(40, 40)"><text x="0" y="24" font-family="-apple-system, 'Segoe UI', Roboto, sans-serif" font-size="24" font-weight="bold" fill="#333333">Welcome to Acme</text></g><g transform="translate(40, 90)"><text x="0" y="18" font-family="-apple-system, 'Segoe UI', Roboto, sans-serif" font-size="18" fill="#333333" text-anchor="start">Get started in just a few steps.</text></g><g transform="translate(40, 140)"><rect width="320" height="180" fill="#f5f5f5" stroke="#d0d0d0" rx="4"/><line x1="0" y1="0" x2="320" y2="180" stroke="#d0d0d0"/><line x1="320" y1="0" x2="0" y2="180" stroke="#d0d0d0"/><text x="160" y="95" text-anchor="middle" font-family="-apple-system, 'Segoe UI', Roboto, sans-serif" font-size="11" fill="#aaaaaa">Welcome illustration</text></g><g transform="translate(40, 350)"><rect width="320" height="40" rx="4" fill="#4a90d9" stroke="#3a7bc8"/><text x="160" y="25" text-anchor="middle" font-family="-apple-system, 'Segoe UI', Roboto, sans-serif" font-size="13" fill="#ffffff">Get Started</text></g><g transform="translate(40, 410)"><text x="0" y="14" font-family="-apple-system, 'Segoe UI', Roboto, sans-serif" font-size="13" fill="#4a90d9" text-decoration="underline">Already have an account? Sign in</text></g><g transform="translate(40, 40)"><text x="0" y="20" font-family="-apple-system, 'Segoe UI', Roboto, sans-serif" font-size="20" font-weight="bold" fill="#333333">Create Account</text></g><g transform="translate(40, 90)"><text x="0" y="13" font-family="-apple-system, 'Segoe UI', Roboto, sans-serif" font-size="13" fill="#333333" text-anchor="start">Name</text></g><g transform="translate(40, 110)"><rect width="320" height="32" rx="4" fill="#ffffff" stroke="#d0d0d0"/><text x="8" y="21" font-family="-apple-system, 'Segoe UI', Roboto, sans-serif" font-size="13" fill="#aaaaaa">Your full name</text></g><g transform="translate(40, 160)"><text x="0" y="13" font-family="-apple-system, 'Segoe UI', Roboto, sans-serif" font-size="13" fill="#333333" text-anchor="start">Email</text></g><g transform="translate(40, 180)"><rect width="320" height="32" rx="4" fill="#ffffff" stroke="#d0d0d0"/><text x="8" y="21" font-family="-apple-system, 'Segoe UI', Roboto, sans-serif" font-size="13" fill="#aaaaaa">you@example.com</text></g><g transform="translate(40, 230)"><text x="0" y="13" font-family="-apple-system, 'Segoe UI', Roboto, sans-serif" font-size="13" fill="#333333" text-anchor="start">Password</text></g><g transform="translate(40, 250)"><rect width="320" height="32" rx="4" fill="#ffffff" stroke="#d0d0d0"/><text x="8" y="21" font-family="-apple-system, 'Segoe UI', Roboto, sans-serif" font-size="13" fill="#aaaaaa">Choose a password</text></g><g transform="translate(40, 310)"><rect width="320" height="40" rx="4" fill="#4a90d9" stroke="#3a7bc8"/><text x="160" y="25" text-anchor="middle" font-family="-apple-system, 'Segoe UI', Roboto, sans-serif" font-size="13" fill="#ffffff">Create Account</text></g><g transform="translate(40, 370)"><rect width="150" height="36" rx="4" fill="#f5f5f5" stroke="#a0a0a0"/><text x="75" y="23" text-anchor="middle" font-family="-apple-system, 'Segoe UI', Roboto, sans-serif" font-size="13" fill="#333333">Back</text></g><g transform="translate(40, 80)"><text x="0" y="24" font-family="-apple-system, 'Segoe UI', Roboto, sans-serif" font-size="24" font-weight="bold" fill="#333333">You're All Set!</text></g><g transform="translate(175, 160)"><g transform="scale(2.0833333333333335)" fill="none" stroke="#888888" stroke-width="2" stroke-linecap="round" stroke-linejoin="round"><path d="M20 6 9 17l-5-5"/></g></g><g transform="translate(40, 240)"><text x="50" y="13" font-family="-apple-system, 'Segoe UI', Roboto, sans-serif" font-size="13" fill="#333333" text-anchor="middle">Your account has been created.</text></g><g transform="translate(40, 270)"><text x="50" y="13" font-family="-apple-system, 'Segoe UI', Roboto, sans-serif" font-size="13" fill="#333333" text-anchor="middle">Start exploring the dashboard.</text></g><g transform="translate(40, 340)"><rect width="320" height="40" rx="4" fill="#4a90d9" stroke="#3a7bc8"/><text x="160" y="25" text-anchor="middle" font-family="-apple-system, 'Segoe UI', Roboto, sans-serif" font-size="13" fill="#ffffff">Go to Dashboard</text></g></svg>