<svg xmlns="http://www.w3.org/2000/svg" width="440" height="520" viewBox="0 0 440 520"><rect width="440" height="520" fill="#fff" stroke="#ccc" stroke-width="1"/><g transform="translate(40, 20)"><rect width="360" height="6" rx="3" fill="#f5f5f5" stroke="#d0d0d0"/><rect width="118.80000000000001" height="6" rx="3" fill="#4a90d9"/></g><g transform="translate(175, 42)"><text x="0" y="11" font-family="-apple-system, 'Segoe UI', Roboto, sans-serif" font-size="11" fill="#333333" text-anchor="start">Step 1 of 3</text></g><g transform="translate(40, 70)"><text x="0" y="20" font-family="-apple-system, 'Segoe UI', Roboto, sans-serif" font-size="20" font-weight="bold" fill="#333333">Create Your Account</text></g><g transform="translate(40, 105)"><text x="0" y="11" font-family="-apple-system, 'Segoe UI', Roboto, sans-serif" font-size="11" fill="#333333" text-anchor="start">Join 10,000+ developers already using the platform.</text></g><g transform="translate(40, 145)"><text x="0" y="13" font-family="-apple-system, 'Segoe UI', Roboto, sans-serif" font-size="13" fill="#333333" text-anchor="start">First Name</text></g><g transform="translate(40, 165)"><rect width="172" height="32" rx="4" fill="#ffffff" stroke="#d0d0d0"/><text x="8" y="21" font-family="-apple-system, 'Segoe UI', Roboto, sans-serif" font-size="13" fill="#aaaaaa">Jane</text></g><g transform="translate(228, 145)"><text x="0" y="13" font-family="-apple-system, 'Segoe UI', Roboto, sans-serif" font-size="13" fill="#333333" text-anchor="start">228</text></g><g transform="translate(228, 165)"><rect width="172" height="32" rx="4" fill="#ffffff" stroke="#d0d0d0"/><text x="8" y="21" font-family="-apple-system, 'Segoe UI', Roboto, sans-serif" font-size="13" fill="#aaaaaa">Smith</text></g><g transform="translate(40, 215)"><text x="0" y="13" font-family="-apple-system, 'Segoe UI', Roboto, sans-serif" font-size="13" fill="#333333" text-anchor="start">Email Address</text></g><g transform="translate(40, 235)"><rect width="360" height="32" rx="4" fill="#ffffff" stroke="#d0d0d0"/><text x="8" y="21" font-family="-apple-system, 'Segoe UI', Roboto, sans-serif" font-size="13" fill="#aaaaaa">jane@company.com</text></g><g transform="translate(40, 285)"><text x="0" y="13" font-family="-apple-system, 'Segoe UI', Roboto, sans-serif" font-size="13" fill="#333333" text-anchor="start">Password</text></g><g transform="translate(40, 305)"><rect width="360" height="32" rx="4" fill="#ffffff" stroke="#d0d0d0"/><text x="8" y="21" font-family="-apple-system, 'Segoe UI', Roboto, sans-serif" font-size="13" fill="#aaaaaa">At least 8 characters</text></g><g transform="translate(40, 342)"><text x="0" y="11" font-family="-apple-system, 'Segoe UI', Roboto, sans-serif" font-size="11" fill="#333333" text-anchor="start">Must contain a letter, number, and special character.</text></g><g transform="translate(40, 375)"><rect x="0" y="2" width="14" height="14" rx="2" fill="#ffffff" stroke="#a0a0a0"/><text x="20" y="14" font-family="-apple-system, 'Segoe UI', Roboto, sans-serif" font-size="13" fill="#333333">I agree to the Terms of Service and Privacy Policy</text></g><g transform="translate(40, 420)"><rect width="360" height="38" rx="4" fill="#4a90d9" stroke="#3a7bc8"/><text x="180" y="24" text-anchor="middle" font-family="-apple-system, 'Segoe UI', Roboto, sans-serif" font-size="13" fill="#ffffff">Continue</text></g><g transform="translate(40, 475)"><line x1="0" y1="1" x2="360" y2="1" stroke="#d0d0d0" stroke-width="1"/></g><g transform="translate(130, 498)"><text x="0" y="11" font-family="-apple-system, 'Segoe UI', Roboto, sans-serif" font-size="11" fill="#333333" text-anchor="start">Already have an account?</text></g><g transform="translate(305, 498)"><text x="0" y="14" font-family="-apple-system, 'Segoe UI', Roboto, sans-serif" font-size="13" fill="#4a90d9" text-decoration="underline">Sign in</text></g></svg>